<svg width="53" height="42" viewBox="0 0 53 42" fill="none" xmlns="http://www.w3.org/2000/svg">
<mask id="mask0_3_2" style="mask-type:luminance" maskUnits="userSpaceOnUse" x="0" y="11" width="53" height="21">
<path fill-rule="evenodd" clip-rule="evenodd" d="M6.10352e-05 11.6384H53.0001V31.0316H6.10352e-05V11.6384Z" fill="white"/>
</mask>
<g mask="url(#mask0_3_2)">
<path fill-rule="evenodd" clip-rule="evenodd" d="M23.549 18.832C21.6473 18.3279 19.7123 18.2113 19.7963 16.7992C19.8259 16.2855 20.251 15.7101 21.7055 15.7066C22.6138 15.7049 24.1367 15.9869 25.3168 16.6895C26.5338 17.4138 27.4107 18.4977 28.2969 18.4977H30.4685C31.1116 18.4977 31.5912 17.6219 31.5912 17.016V13.0992C31.5912 12.4027 31.0932 12.1781 30.5535 12.1842L28.4263 12.2095C27.0254 12.2251 27.6584 13.269 27.0439 13.4857C25.448 14.049 25.4554 11.8708 21.1982 11.8186C16.3939 11.7594 13.5588 14.3964 13.6291 17.4138C13.7178 21.213 16.7645 22.6033 20.543 23.7647C22.4207 24.3419 25.508 24.637 25.4249 26.0482C25.3944 26.5619 24.9702 27.1382 23.5157 27.1408C22.6074 27.1426 21.0845 26.8605 19.9045 26.1579C18.6865 25.4345 17.8096 24.3506 16.9243 24.3506H14.7518C14.1096 24.3506 13.6291 25.2255 13.6291 25.8315V29.7482C13.6291 30.4455 14.1271 30.6693 14.6677 30.6632L16.794 30.6388C18.1958 30.6223 17.5619 29.5784 18.1764 29.3617C19.7732 28.7993 19.7658 30.9766 24.0231 31.0297C28.8264 31.088 31.6624 28.4519 31.5912 25.4336C31.5025 21.6344 28.478 20.1387 23.549 18.832M45.5872 21.3183C45.5872 17.8552 44.9237 16.0818 42.6116 16.0818C40.2987 16.0818 39.6352 17.8552 39.6352 21.3183C39.6352 24.7806 40.2987 26.5549 42.6116 26.5549C44.9237 26.5549 45.5872 24.7806 45.5872 21.3183M42.6138 30.8925C36.8928 30.8925 32.2262 27.6488 32.2262 21.3179C32.2262 14.9879 36.8928 11.745 42.6138 11.745C48.3338 11.745 53.0004 14.9879 53.0004 21.3179C53.0004 27.6488 48.3338 30.8925 42.6138 30.8925M0.786509 11.638H12.0149C12.4474 11.638 12.8013 11.9706 12.8013 12.378V15.7637C12.8013 16.1711 12.4474 16.5037 12.0149 16.5037H9.69089V25.7075H12.0149C12.4474 25.7075 12.8013 26.04 12.8013 26.4483V29.8332C12.8013 30.2406 12.4474 30.574 12.0149 30.574H0.786509C0.354042 30.574 0.00012207 30.2406 0.00012207 29.8332V26.4483C0.00012207 26.04 0.354042 25.7066 0.786509 25.7075H3.25656V16.5037H0.786509C0.354042 16.5037 0.00012207 16.1711 0.00012207 15.7637V12.378C0.00012207 11.9706 0.354042 11.638 0.786509 11.638" fill="#B9826B"/>
</g>
<mask id="mask1_3_2" style="mask-type:luminance" maskUnits="userSpaceOnUse" x="6" y="0" width="40" height="42">
<path fill-rule="evenodd" clip-rule="evenodd" d="M6.69778 0H45.1762V42H6.69778V0Z" fill="white"/>
</mask>
<g mask="url(#mask1_3_2)">
<path fill-rule="evenodd" clip-rule="evenodd" d="M32.6963 40.1213C32.4847 39.8636 32.2139 39.6216 31.8923 39.3979C33.5917 38.4785 35.1395 37.1753 36.4693 35.5743C37.4599 36.0383 38.2463 36.565 38.7767 37.1352C36.9498 38.4167 34.9002 39.4327 32.6963 40.1213V40.1213ZM31.0015 38.8905C30.7345 38.7643 30.4471 38.6494 30.144 38.5449C29.8853 38.4552 29.6136 38.3743 29.3308 38.302C30.3048 37.3174 31.178 35.9088 31.909 34.1781C32.7101 34.3313 33.4688 34.5141 34.1748 34.7231C34.6877 34.8737 35.1719 35.0382 35.6247 35.2141C34.2802 36.7916 32.7157 38.0478 31.0015 38.8905V38.8905ZM28.2834 38.0834C27.6846 37.985 27.0498 37.9223 26.3918 37.9023V33.6452C28.0164 33.6661 29.5707 33.7975 31.0067 34.0221C30.2323 35.8138 29.3064 37.2128 28.2834 38.0834V38.0834ZM25.4826 37.9023C24.8256 37.9223 24.1908 37.985 23.592 38.0834C22.569 37.2128 21.6422 35.8147 20.8696 34.0221C22.3047 33.7984 23.8581 33.6652 25.4826 33.6452V37.9023ZM22.5485 38.2996C22.1594 38.3988 21.7917 38.5155 21.4498 38.6461C21.2502 38.7218 21.0589 38.8028 20.8768 38.8889C19.1627 38.0462 17.5991 36.79 16.2546 35.2125C16.6464 35.0601 17.0622 34.9156 17.5003 34.7815C18.2626 34.5482 19.0906 34.3436 19.9694 34.1765C20.6994 35.9072 21.5745 37.3149 22.5485 38.2996V38.2996ZM19.9813 39.3987C19.6616 39.6216 19.3908 39.8636 19.1783 40.1213C16.9735 39.4327 14.9248 38.4176 13.0979 37.1361C13.6274 36.5659 14.4138 36.0392 15.4044 35.5743C16.7351 37.1761 18.282 38.4785 19.9813 39.3987V39.3987ZM20.1223 40.3944C20.5141 40.0288 21.0834 39.7014 21.782 39.435C22.9102 39.0058 24.3555 38.7473 25.9338 38.7473C27.3957 38.7473 28.743 38.9684 29.8297 39.3428C30.6447 39.6231 31.3064 39.9835 31.7462 40.3953C29.8953 40.8854 27.9465 41.1483 25.9338 41.1483C23.9212 41.1483 21.9723 40.8846 20.1223 40.3944V40.3944ZM39.4857 36.6147C38.9036 35.9774 38.0608 35.3941 37.0129 34.8857C37.6219 34.0778 38.1791 33.2029 38.6772 32.2714C38.7723 32.0946 38.8638 31.9162 38.9544 31.736H37.9545C37.9268 31.7873 37.9 31.8378 37.8732 31.8892C37.3696 32.8312 36.8041 33.7096 36.184 34.5175C35.6434 34.2972 35.0603 34.0944 34.4403 33.9107C33.7472 33.7061 33.007 33.5259 32.2271 33.3727C32.3944 32.9269 32.5533 32.4646 32.7021 31.9841C32.727 31.9014 32.7529 31.8195 32.7769 31.736H31.8409C31.8399 31.7394 31.8381 31.7438 31.8372 31.7473C31.6791 32.2574 31.511 32.7458 31.3326 33.2125C29.7968 32.9626 28.1307 32.8155 26.3888 32.7937V31.736H25.4851V32.7937C23.7441 32.8155 22.078 32.9626 20.5431 33.2125C20.3648 32.7458 20.1957 32.2574 20.0367 31.7473C20.0358 31.7438 20.0349 31.7394 20.034 31.736H19.097C19.1219 31.8195 19.1469 31.9014 19.1727 31.9841C19.3215 32.4646 19.4804 32.9278 19.6486 33.3735C18.7874 33.5415 17.9742 33.7444 17.2211 33.9751C16.6805 34.1414 16.1695 34.3225 15.6917 34.5175C15.0717 33.7096 14.5052 32.8312 14.0016 31.8892C13.9739 31.8378 13.9471 31.7873 13.9203 31.736H12.9204C13.0101 31.9162 13.1025 32.0946 13.1967 32.2714C13.6948 33.2029 14.253 34.0778 14.8619 34.8857C13.8149 35.3941 12.9731 35.9774 12.3891 36.6147C10.5835 35.2348 9.01807 33.5877 7.76133 31.736H6.69772C10.6361 37.8779 17.7912 42.0001 25.9369 42.0001C34.0827 42.0001 41.2378 37.8779 45.1762 31.736H44.1126C42.8567 33.5877 41.2914 35.2348 39.4857 36.6147V36.6147ZM32.6963 1.87779C32.4847 2.13461 32.2139 2.3775 31.8923 2.60037C33.5917 3.52058 35.1395 4.82297 36.4693 6.42397C37.4599 5.95995 38.2463 5.43325 38.7767 4.86302C36.9498 3.58152 34.9002 2.56642 32.6963 1.87779V1.87779ZM31.0015 3.10897C30.7344 3.23521 30.4471 3.35012 30.144 3.45459C29.8852 3.54339 29.6135 3.62523 29.3308 3.69836C30.3048 4.68298 31.178 6.09071 31.9089 7.82143C32.7101 7.66821 33.4688 7.48539 34.1748 7.27732C34.6876 7.12584 35.1719 6.96217 35.6246 6.78544C34.2801 5.20794 32.7157 3.9517 31.0015 3.10897V3.10897ZM28.2834 3.91571C27.6846 4.01496 27.0498 4.07764 26.3918 4.09679V8.35481C28.0164 8.33304 29.5707 8.20158 31.0067 7.97697C30.2323 6.18532 29.3064 4.78629 28.2834 3.91571V3.91571ZM25.4826 4.09679C24.8256 4.07677 24.1908 4.01496 23.592 3.91571C22.569 4.78629 21.6422 6.18445 20.8696 7.97697C22.3047 8.20158 23.8581 8.33391 25.4826 8.35481V4.09679ZM22.5485 3.69646C22.1595 3.59722 21.7917 3.48056 21.4498 3.34997C21.2502 3.27423 21.0589 3.19327 20.8769 3.10708C19.1627 3.9498 17.5992 5.20605 16.2546 6.78355C16.6464 6.93677 17.0623 7.08042 17.5003 7.21449C18.2627 7.44867 19.0906 7.65239 19.9694 7.81954C20.6994 6.08969 21.5745 4.68109 22.5485 3.69646V3.69646ZM19.9813 2.59842C19.6616 2.37642 19.3908 2.13353 19.1783 1.87584C16.9735 2.56447 14.9248 3.57957 13.0979 4.86106C13.6274 5.43129 14.4138 5.95887 15.4044 6.42289C16.7351 4.82189 18.282 3.51863 19.9813 2.59842V2.59842ZM20.1223 1.60456C20.5141 1.97021 21.0834 2.29755 21.782 2.56395C22.9102 2.99401 24.3555 3.25171 25.9338 3.25171C27.3957 3.25171 28.743 3.03058 29.8297 2.65623C30.6447 2.3759 31.3064 2.01548 31.7462 1.60456C29.8953 1.11443 27.9465 0.851512 25.9338 0.851512C23.9212 0.851512 21.9723 1.11443 20.1223 1.60456V1.60456ZM39.4857 5.384C38.9036 6.02126 38.0608 6.60455 37.0129 7.11297C37.6219 7.92175 38.1791 8.79581 38.6772 9.72733C38.7723 9.90406 38.8638 10.0825 38.9544 10.2636H37.9545C37.9268 10.2114 37.9 10.1609 37.8732 10.1095C37.3696 9.16842 36.8041 8.28913 36.184 7.48123C35.6434 7.70149 35.0603 7.9052 34.4403 8.08803C33.7472 8.29261 33.007 8.47369 32.2271 8.62605C32.3944 9.07178 32.5533 9.53493 32.7021 10.0146C32.727 10.0973 32.7529 10.18 32.7769 10.2636H31.8409C31.8399 10.2593 31.8381 10.2549 31.8372 10.2514C31.6791 9.74213 31.511 9.25286 31.3326 8.7871C29.7968 9.03696 28.1307 9.18409 26.3888 9.20585V10.2636H25.4851V9.20498C23.7441 9.18322 22.078 9.03696 20.5431 8.78623C20.3648 9.25286 20.1957 9.74126 20.0367 10.2514C20.0358 10.2549 20.0349 10.2593 20.034 10.2636H19.097C19.1219 10.18 19.1469 10.0973 19.1727 10.0146C19.3215 9.53493 19.4804 9.07091 19.6486 8.62605C18.7874 8.45715 17.9742 8.25431 17.2211 8.0236C16.6805 7.85819 16.1695 7.67624 15.6917 7.48123C15.0717 8.28913 14.5052 9.16842 14.0016 10.1095C13.9739 10.1609 13.9471 10.2114 13.9203 10.2636H12.9204C13.0101 10.0825 13.1025 9.90406 13.1967 9.72733C13.6948 8.79581 14.253 7.92175 14.8619 7.11297C13.8149 6.60455 12.9731 6.02126 12.3891 5.384C10.5835 6.76387 9.01807 8.41188 7.76133 10.2636H6.69772C10.6361 4.12078 17.7912 -0.000549316 25.9369 -0.000549316C34.0827 -0.000549316 41.2378 4.12078 45.1762 10.2636H44.1126C42.8567 8.41188 41.2914 6.76387 39.4857 5.384V5.384Z" fill="#B9826B"/>
</g>
</svg>
