<svg fill="none" height="19" viewBox="0 0 120 19" width="120" xmlns="http://www.w3.org/2000/svg"><g fill="#251f18"><path d="m119.361 10.5732h-6.531v4.5671h7.17v2.9001h-10.481v-17.651728h10.275v2.900088h-6.964v4.38439h6.531z"/><path d="m85.7725 18.0404v-17.651728h3.1969l5.4577 8.700268 5.5261-8.700268h3.2658v17.651728h-3.197v-12.0799h-.1145l-5.4804 8.4719-5.3892-8.4034h-.0685v12.0114z"/><path d="m76.165 18.0404v-17.651728h3.3112v17.651728z"/><path d="m56.9072 3.47145v-3.082778h14.569v3.082778h-5.6404v14.56895h-3.2882v-14.56895z"/><path d="m37.8971 10.6184v-2.90005h6.3254l-.0228 1.50713c-.0457 5.29782-4.2702 9.08852-9.1341 9.08852-5.138 0-9.1799-4.1104-9.1799-9.15703 0-5.04661 4.0419-9.15697 9.1799-9.15697 2.6032 0 4.9552 1.07326 6.6222 2.83158l-2.2607 2.23787c-1.1189-1.21028-2.6261-1.91817-4.3615-1.91817-3.4025 0-5.8687 2.67173-5.8687 6.00569 0 3.33393 2.489 6.00573 5.8687 6.00573 2.8772 0 5.1836-1.804 5.823-4.5443z"/><path d="m17.1904 18.0404v-17.651728h3.3112v17.651728z"/><path d="m0 18.0404v-17.651728h5.89152c3.12844 0 5.45768 2.055178 5.45768 5.046608 0 1.66698-.7993 2.87726-2.03238 3.6765 1.50718.73073 2.55758 2.14652 2.55758 3.83632 0 3.1056-2.35206 5.0923-5.43483 5.0923zm6.02853-7.627h-2.85442v4.8183h2.78592c1.68981 0 2.7174-1.0048 2.7174-2.4891 0-1.3016-.89058-2.3292-2.6489-2.3292zm-.50238-7.19314h-2.35204v4.65841h2.62607c1.41579 0 2.42055-.98192 2.42055-2.46622 0-1.27878-1.05043-2.19219-2.69458-2.19219z"/></g></svg>