<svg width="68" height="40" viewBox="0 0 68 40" fill="none" xmlns="http://www.w3.org/2000/svg">
<rect width="68" height="40" fill="#9F6C56" style="mix-blend-mode:lighten"/>
<g clip-path="url(#clip0_3_46)">
<mask id="mask0_3_46" style="mask-type:luminance" maskUnits="userSpaceOnUse" x="3" y="5" width="60" height="29">
<path d="M62.6788 5.18475H3.97491V33.6194H62.6788V5.18475Z" fill="white"/>
</mask>
<g mask="url(#mask0_3_46)">
<path fill-rule="evenodd" clip-rule="evenodd" d="M25.4362 16.0683L23.604 21.7259C24.1493 21.928 24.7813 22.0423 25.4561 22.0423C26.1123 22.0423 26.7301 21.9294 27.2711 21.7412L25.4717 16.0668H25.4375L25.4362 16.0683Z" fill="white"/>
<path fill-rule="evenodd" clip-rule="evenodd" d="M39.1524 14.2321H37.8797V18.7914H39.1524C40.8507 18.7914 42.2044 18.238 42.2044 16.4818C42.2044 14.7255 40.8507 14.2321 39.1524 14.2321Z" fill="white"/>
<path fill-rule="evenodd" clip-rule="evenodd" d="M3.97491 5.18475V33.6194H33.6429L62.6788 5.18475H3.97491ZM39.7456 22.6818H37.8793V28.1137H29.3182L28.4683 25.5156C27.5629 25.8055 26.5408 25.9686 25.4561 25.9686C24.3714 25.9686 23.2923 25.7985 22.3699 25.4891L21.4887 28.1123H16.2387L16.8181 26.5972C16.7483 26.6571 16.6814 26.7171 16.606 26.7756C15.2992 27.8071 13.6621 28.373 11.6335 28.4078L11.3332 28.4106C9.00285 28.4106 6.7195 27.7806 4.79202 26.7073L6.57715 23.2366C8.51031 24.3558 9.72459 24.6068 11.3617 24.5733C12.2101 24.558 12.8251 24.406 13.2237 24.0018C13.4642 23.7537 13.5923 23.4471 13.6037 23.1181C13.6194 22.2149 12.3097 21.7926 10.7054 21.3061C9.40428 20.9117 7.92951 20.375 6.77644 19.5456C5.40984 18.563 4.75928 17.3322 4.79202 15.5955C4.81196 14.334 5.28884 13.1925 6.17428 12.2948C7.44408 11.0083 9.49537 10.2291 11.9538 10.2291H11.9666C14.0764 10.2319 16.6501 10.8173 18.5121 11.7456L16.5049 15.169C14.4635 14.2058 13.4386 14.1138 12.2756 14.0525C10.546 13.9619 9.67191 14.5682 9.6591 15.2219C9.64347 16.0178 11.2962 16.7385 12.8521 17.2277C15.2095 17.9622 18.2075 18.9421 18.6658 21.7786L22.9763 10.5274H27.9814L33.0293 23.9809V10.5274L38.8075 10.5316C44.3294 10.5316 46.923 12.4593 46.923 16.6604C46.923 20.4322 44.2539 22.6818 39.7399 22.6818H39.7456Z" fill="white"/>
</g>
</g>
<defs>
<clipPath id="clip0_3_46">
<rect width="63.6788" height="30.8444" fill="white" transform="translate(3.97491 3.97992)"/>
</clipPath>
</defs>
</svg>
