<svg width="27" height="27" viewBox="0 0 27 27" fill="none" xmlns="http://www.w3.org/2000/svg">
<path fill-rule="evenodd" clip-rule="evenodd" d="M19.5 0H7.5C3.35787 0 0 3.35787 0 7.5V19.5C0 23.6421 3.35787 27 7.5 27H19.5C23.6421 27 27 23.6421 27 19.5V7.5C27 3.35787 23.6421 0 19.5 0ZM24.375 19.5C24.3668 22.1889 22.1889 24.3668 19.5 24.375H7.5C4.81103 24.3668 2.63323 22.1889 2.625 19.5V7.5C2.63323 4.81103 4.81103 2.63323 7.5 2.625H19.5C22.1889 2.63323 24.3668 4.81103 24.375 7.5V19.5ZM20.625 7.875C21.4534 7.875 22.125 7.20342 22.125 6.375C22.125 5.54658 21.4534 4.875 20.625 4.875C19.7966 4.875 19.125 5.54658 19.125 6.375C19.125 7.20342 19.7966 7.875 20.625 7.875ZM13.5 6.75C9.77208 6.75 6.75 9.77208 6.75 13.5C6.75 17.228 9.77208 20.25 13.5 20.25C17.228 20.25 20.25 17.228 20.25 13.5C20.2541 11.7085 19.5441 9.98935 18.2774 8.72262C17.0106 7.45588 15.2915 6.74601 13.5 6.75ZM9.375 13.5C9.375 15.7782 11.2218 17.625 13.5 17.625C15.7782 17.625 17.625 15.7782 17.625 13.5C17.625 11.2218 15.7782 9.375 13.5 9.375C11.2218 9.375 9.375 11.2218 9.375 13.5Z" fill="currentColor"/>
</svg>
