<svg width="27" height="27" viewBox="0 0 27 27" fill="none" xmlns="http://www.w3.org/2000/svg">
<path fill-rule="evenodd" clip-rule="evenodd" d="M2.25 0C1.00735 0 0 1.00735 0 2.25V24.75C0 25.9926 1.00735 27 2.25 27H24.75C25.9926 27 27 25.9926 27 24.75V2.25C27 1.00735 25.9926 0 24.75 0H2.25ZM8.28113 6.00408C8.28957 7.43845 7.21593 8.32229 5.94186 8.31596C4.74162 8.30963 3.69533 7.35408 3.70166 6.00619C3.70799 4.73845 4.70995 3.71962 6.01144 3.74916C7.33191 3.77869 8.28957 4.7469 8.28113 6.00408ZM13.9196 10.1426H10.1396H10.1375V22.9824H14.1325V22.6828C14.1325 22.113 14.1321 21.543 14.1316 20.9728C14.1304 19.4521 14.1291 17.9298 14.1369 16.4095C14.139 16.0404 14.1558 15.6565 14.2507 15.3042C14.6071 13.9879 15.7907 13.1379 17.1111 13.3468C17.9591 13.4796 18.5201 13.9712 18.7563 14.7707C18.902 15.2705 18.9674 15.8084 18.9737 16.3295C18.9908 17.9009 18.9883 19.4723 18.9859 21.0438C18.985 21.5985 18.9842 22.1535 18.9842 22.7082V22.9803H22.992V22.6724C22.992 21.9944 22.9917 21.3165 22.9913 20.6386C22.9905 18.9444 22.9896 17.2501 22.9941 15.5553C22.9962 14.7895 22.914 14.0345 22.7262 13.2941C22.4457 12.1929 21.8656 11.2817 20.9227 10.6236C20.254 10.1553 19.52 9.85365 18.6995 9.8199C18.606 9.81602 18.5118 9.81093 18.4171 9.80582C17.9976 9.78314 17.5712 9.7601 17.1701 9.84099C16.0226 10.0709 15.0144 10.5962 14.2528 11.5221C14.1643 11.6283 14.0778 11.7362 13.9486 11.8971L13.9196 11.9335V10.1426ZM4.02246 22.9866H7.9986V10.151H4.02246V22.9866Z" fill="currentColor"/>
</svg>
